<svg width="24" height="24" viewBox="0 0 24 24" fill="none" xmlns="http://www.w3.org/2000/svg">
<path d="M14.8643 14.8301C15.2783 14.8303 15.6142 15.166 15.6143 15.5801C15.6143 15.9942 15.2783 16.3299 14.8643 16.3301H9.13281C8.7186 16.3301 8.38281 15.9943 8.38281 15.5801C8.38288 15.1659 8.71864 14.8301 9.13281 14.8301H14.8643Z" fill="black"/>
<path d="M14.8643 11.9648C15.2783 11.965 15.6143 12.3007 15.6143 12.7148C15.6141 13.1288 15.2782 13.4647 14.8643 13.4648H9.13281C8.71872 13.4648 8.38301 13.1289 8.38281 12.7148C8.38281 12.3006 8.7186 11.9648 9.13281 11.9648H14.8643Z" fill="black"/>
<path d="M10.5654 9.09863C10.9795 9.09876 11.3154 9.43456 11.3154 9.84863C11.3154 10.2628 10.9795 10.5985 10.5654 10.5986H9.13281C8.7186 10.5986 8.38281 10.2628 8.38281 9.84863C8.38288 9.43448 8.71864 9.09863 9.13281 9.09863H10.5654Z" fill="black"/>
<path fill-rule="evenodd" clip-rule="evenodd" d="M14.2939 4.09863C14.4382 4.12741 14.5722 4.1982 14.6777 4.30371L18.2598 7.88574C18.4004 8.02637 18.4795 8.21716 18.4795 8.41602V9.11719C18.4796 9.12234 18.4805 9.12763 18.4805 9.13281C18.4805 9.13902 18.4796 9.1452 18.4795 9.15137V17.7295C18.4795 18.3084 18.2492 18.8641 17.8398 19.2734C17.4306 19.6824 16.8754 19.912 16.2969 19.9121H7.69922C7.12063 19.912 6.56547 19.6825 6.15625 19.2734C5.74696 18.8641 5.51663 18.3083 5.5166 17.7295V6.2666C5.51666 5.68784 5.74705 5.13292 6.15625 4.72363C6.5655 4.31438 7.12046 4.08411 7.69922 4.08398H14.1475L14.2939 4.09863ZM7.69922 5.58398C7.51829 5.58411 7.34474 5.65623 7.2168 5.78418C7.08891 5.91217 7.01666 6.08567 7.0166 6.2666V17.7295C7.01663 17.9105 7.08889 18.0839 7.2168 18.2119C7.34474 18.3399 7.51829 18.412 7.69922 18.4121H16.2969C16.4777 18.412 16.6514 18.3398 16.7793 18.2119C16.9072 18.0839 16.9795 17.9104 16.9795 17.7295V9.88281H14.8643C14.2857 9.88269 13.7305 9.65306 13.3213 9.24414C12.9119 8.83478 12.6817 8.27911 12.6816 7.7002V5.58398H7.69922ZM14.1816 7.7002C14.1817 7.88128 14.2538 8.05554 14.3818 8.18359C14.5098 8.31121 14.6835 8.38269 14.8643 8.38281H16.6357L14.1816 5.92871V7.7002Z" fill="black"/>
</svg>
