<svg width="128" height="128" viewBox="0 0 128 128" fill="none" xmlns="http://www.w3.org/2000/svg">
<g opacity="0.5">
<path d="M31.9998 38.3998C35.5344 38.3998 38.3998 35.5344 38.3998 31.9998C38.3998 28.4652 35.5344 25.5999 31.9998 25.5999C28.4652 25.5999 25.5999 28.4652 25.5999 31.9998C25.5999 35.5344 28.4652 38.3998 31.9998 38.3998Z" fill="#FCCEE8"/>
<path d="M95.9993 38.3998C99.5338 38.3998 102.399 35.5344 102.399 31.9998C102.399 28.4652 99.5338 25.5999 95.9993 25.5999C92.4647 25.5999 89.5993 28.4652 89.5993 31.9998C89.5993 35.5344 92.4647 38.3998 95.9993 38.3998Z" fill="#FCCEE8"/>
<path d="M31.9998 102.4C35.5344 102.4 38.3998 99.5342 38.3998 95.9996C38.3998 92.465 35.5344 89.5996 31.9998 89.5996C28.4652 89.5996 25.5999 92.465 25.5999 95.9996C25.5999 99.5342 28.4652 102.4 31.9998 102.4Z" fill="#FCCEE8"/>
<path d="M95.9994 102.4C99.534 102.4 102.399 99.5342 102.399 95.9996C102.399 92.465 99.534 89.5996 95.9994 89.5996C92.4648 89.5996 89.5995 92.465 89.5995 95.9996C89.5995 99.5342 92.4648 102.4 95.9994 102.4Z" fill="#FCCEE8"/>
<path d="M63.9994 74.2394C69.6548 74.2394 74.2394 69.6548 74.2394 63.9994C74.2394 58.3441 69.6548 53.7595 63.9994 53.7595C58.3441 53.7595 53.7595 58.3441 53.7595 63.9994C53.7595 69.6548 58.3441 74.2394 63.9994 74.2394Z" fill="#FCCEE8"/>
</g>
</svg>
