<svg width="24" height="24" viewBox="0 0 24 24" fill="none" xmlns="http://www.w3.org/2000/svg">
<path d="M19.4427 7.42676C19.5461 7.42676 19.6449 7.44571 19.7366 7.47949C19.747 7.48329 19.7577 7.48602 19.7679 7.49023C19.7803 7.49536 19.7919 7.50213 19.804 7.50781C19.817 7.51393 19.8303 7.51955 19.8431 7.52637C20.1109 7.66938 20.2933 7.95165 20.2933 8.27637V12.7432C20.2931 13.2125 19.912 13.5937 19.4427 13.5938C18.9735 13.5936 18.5932 13.2124 18.5931 12.7432V10.3271L13.7152 15.2051C13.3833 15.5363 12.8458 15.5364 12.514 15.2051L9.39191 12.083L5.15461 16.3213C4.82272 16.6527 4.28527 16.6528 3.95344 16.3213C3.62157 15.9894 3.62172 15.4511 3.95344 15.1191L8.79133 10.2803C9.12318 9.94853 9.66154 9.94867 9.99347 10.2803L13.1146 13.4014L17.3909 9.12598H14.9759C14.5065 9.12598 14.1264 8.7457 14.1263 8.27637C14.1263 7.80693 14.5065 7.42676 14.9759 7.42676H19.4427Z" fill="black"/>
</svg>
