<svg width="24" height="24" viewBox="0 0 24 24" fill="none" xmlns="http://www.w3.org/2000/svg">
<path d="M12.1311 3.12891C12.2169 3.141 12.3009 3.16519 12.3801 3.2002L12.4963 3.26172L12.6018 3.33789C12.6686 3.39358 12.7276 3.45843 12.7766 3.53027L12.843 3.64355L14.76 7.52734C14.8505 7.7104 14.9845 7.86915 15.1497 7.98926C15.3146 8.10916 15.5065 8.18709 15.7083 8.2168L19.9973 8.84473C20.1706 8.86993 20.3331 8.94285 20.467 9.05566C20.5677 9.14048 20.6491 9.24583 20.7063 9.36328L20.7551 9.48438L20.7874 9.61133C20.8101 9.73985 20.8052 9.87235 20.7737 10C20.7317 10.1702 20.6433 10.3258 20.5178 10.4482L17.4163 13.4678C17.2698 13.6105 17.1602 13.787 17.0969 13.9814C17.0337 14.1757 17.0187 14.3826 17.053 14.584L17.7854 18.8516C17.8154 19.0241 17.7963 19.2018 17.7307 19.3643C17.6648 19.5275 17.5538 19.6689 17.4114 19.7725C17.2689 19.8759 17.0997 19.9379 16.9241 19.9502C16.7484 19.9624 16.5727 19.9245 16.4172 19.8418L12.5862 17.8271C12.4056 17.7324 12.2042 17.6837 12.0003 17.6836C11.796 17.6836 11.5942 17.7332 11.4133 17.8281L11.4124 17.8271L7.58131 19.8418C7.42603 19.9239 7.25068 19.9616 7.07545 19.9492C6.90016 19.9367 6.73127 19.8748 6.58912 19.7715C6.44714 19.6681 6.33663 19.5271 6.27076 19.3643C6.20487 19.2013 6.18576 19.0228 6.21607 18.8496L6.94752 14.585C6.98204 14.3834 6.9668 14.1759 6.90357 13.9814C6.8403 13.7871 6.73064 13.6104 6.58424 13.4678L3.48267 10.4492L3.48365 10.4482C3.35787 10.3262 3.26831 10.172 3.22584 10.002C3.18323 9.83117 3.18911 9.6518 3.24342 9.48438L3.29224 9.3623C3.34965 9.2446 3.4315 9.13958 3.53248 9.05469L3.63892 8.97754C3.7493 8.90853 3.87342 8.86248 4.00318 8.84375L8.29127 8.2168L8.44068 8.18652C8.58777 8.14652 8.72681 8.07932 8.85084 7.98926C9.01612 7.86915 9.14999 7.71052 9.24049 7.52734L11.1575 3.64355L11.2239 3.53027C11.2973 3.42269 11.3927 3.33097 11.5042 3.26172C11.653 3.16941 11.8251 3.12012 12.0003 3.12012L12.1311 3.12891Z" fill="black"/>
</svg>
