<svg width="24" height="24" viewBox="0 0 24 24" fill="none" xmlns="http://www.w3.org/2000/svg">
<path fill-rule="evenodd" clip-rule="evenodd" d="M12.001 5.12402C12.3589 5.12406 12.7134 5.20106 13.0391 5.34961L20.54 8.76562C20.8239 8.88889 21.066 9.09083 21.2393 9.34766C21.4168 9.61118 21.5143 9.92151 21.5176 10.2393C21.5183 10.3153 21.5128 10.391 21.5029 10.4658V15.501C21.5027 15.9149 21.1668 16.2508 20.7529 16.251C20.3389 16.251 20.0032 15.915 20.0029 15.501V11.9893L18.002 12.8975V15.501C18.0017 16.625 17.1264 17.4886 16.0488 18.0273C14.9361 18.5836 13.4798 18.876 12.001 18.876C10.522 18.8759 9.06485 18.5837 7.95215 18.0273C6.87494 17.4886 6.00023 16.6248 6 15.501V12.8867L3.46387 11.7305C3.17931 11.6034 2.93631 11.3967 2.76562 11.1357C2.59302 10.8716 2.50114 10.5626 2.50098 10.2471C2.50098 9.93134 2.59292 9.62173 2.76562 9.35742C2.9169 9.12603 3.12478 8.93794 3.36816 8.80957L3.47461 8.75781L10.9639 5.35059C11.2895 5.20209 11.6431 5.12409 12.001 5.12402ZM7.5 15.501C7.50026 15.7694 7.73201 16.2409 8.62305 16.6865C9.4797 17.1149 10.6949 17.3759 12.001 17.376C13.3071 17.376 14.5222 17.1148 15.3789 16.6865C16.27 16.2409 16.5017 15.7694 16.502 15.501V13.5781L13.0381 15.1514L13.0371 15.1504C12.7119 15.2985 12.3584 15.3759 12.001 15.376C11.7327 15.3759 11.4664 15.3332 11.2129 15.249L10.9639 15.1504L7.5 13.5703V15.501ZM12.001 6.62402C11.8579 6.62409 11.7161 6.65451 11.5859 6.71387L4.08594 10.1279L4.07617 10.1318C4.054 10.1415 4.03478 10.1575 4.02148 10.1777C4.00824 10.1981 4.00098 10.2228 4.00098 10.2471C4.00114 10.2711 4.00833 10.2953 4.02148 10.3154C4.02797 10.3252 4.03609 10.3343 4.04492 10.3418L4.07617 10.3613L4.08594 10.3662L11.5859 13.7861C11.716 13.8454 11.858 13.8759 12.001 13.876C12.1441 13.8759 12.2867 13.8455 12.417 13.7861L12.418 13.7852L19.9355 10.374L19.9424 10.3711C19.9646 10.3613 19.9838 10.3446 19.9971 10.3242C19.9997 10.3201 20.0008 10.3149 20.0029 10.3105V10.25C20.0029 10.235 20.004 10.2198 20.0049 10.2051C20.002 10.1988 19.9999 10.1923 19.9961 10.1865C19.9825 10.1664 19.9628 10.1501 19.9404 10.1406C19.933 10.1375 19.9253 10.1342 19.918 10.1309L12.417 6.71484C12.2867 6.65543 12.1441 6.62406 12.001 6.62402Z" fill="black"/>
</svg>
