<svg width="24" height="24" viewBox="0 0 24 24" fill="none" xmlns="http://www.w3.org/2000/svg">
<path fill-rule="evenodd" clip-rule="evenodd" d="M8.30371 2.93262C9.48285 2.9327 10.6135 3.40254 11.4473 4.23633C11.6542 4.44326 11.8387 4.66849 11.999 4.9082C12.1593 4.66843 12.3449 4.44332 12.5518 4.23633C13.3856 3.40252 14.5171 2.93268 15.6963 2.93262H20.3164C20.7603 2.93262 21.1861 3.11004 21.5 3.42383C21.8138 3.73771 21.9911 4.16358 21.9912 4.60742V16.6211C21.9911 17.0649 21.8138 17.4909 21.5 17.8047C21.1861 18.1183 20.7601 18.2949 20.3164 18.2949H14.7725C14.2362 18.295 13.721 18.5085 13.3418 18.8877C12.963 19.2669 12.75 19.7813 12.75 20.3174L12.7461 20.3936C12.7425 20.4287 12.7338 20.4625 12.7256 20.4961C12.7195 20.5209 12.7116 20.5446 12.7031 20.5684C12.6949 20.5913 12.687 20.6139 12.6768 20.6357C12.6667 20.6571 12.6546 20.6771 12.6426 20.6973C12.6315 20.7159 12.6209 20.7344 12.6084 20.752C12.5931 20.7733 12.576 20.7929 12.5586 20.8125C12.5443 20.8286 12.5302 20.8446 12.5146 20.8594C12.4963 20.8768 12.4761 20.8917 12.4561 20.9072C12.4398 20.9198 12.4245 20.9331 12.4072 20.9443C12.3836 20.9597 12.3584 20.9717 12.333 20.9844C12.3163 20.9927 12.3006 21.0027 12.2832 21.0098C12.2517 21.0227 12.2191 21.0325 12.1855 21.041C12.1725 21.0444 12.1598 21.0491 12.1465 21.0518C12.142 21.0527 12.1374 21.0529 12.1328 21.0537C12.0896 21.0614 12.0454 21.0674 12 21.0674C11.9536 21.0674 11.9083 21.0618 11.8643 21.0537C11.861 21.0531 11.8577 21.0534 11.8545 21.0527C11.8351 21.0489 11.8167 21.0414 11.7979 21.0361C11.7706 21.0285 11.7436 21.0213 11.7178 21.0107C11.7012 21.004 11.6858 20.9952 11.6699 20.9873C11.6416 20.9733 11.614 20.9587 11.5879 20.9414C11.5752 20.933 11.5639 20.9232 11.5518 20.9141C11.5287 20.8967 11.5052 20.8802 11.4844 20.8604C11.4668 20.8437 11.4515 20.825 11.4355 20.8066C11.4211 20.79 11.4065 20.7737 11.3936 20.7559C11.3791 20.7359 11.367 20.7147 11.3545 20.6934C11.3434 20.6744 11.3317 20.6558 11.3223 20.6357C11.312 20.614 11.3041 20.5912 11.2959 20.5684C11.2874 20.5447 11.2795 20.5208 11.2734 20.4961C11.2652 20.4626 11.2575 20.4287 11.2539 20.3936L11.25 20.3174L11.2402 20.1172C11.1942 19.6544 10.9889 19.2195 10.6572 18.8877C10.278 18.5085 9.76387 18.2949 9.22754 18.2949H3.68262C3.23886 18.2948 2.81285 18.1184 2.49902 17.8047C2.18526 17.4909 2.00895 17.0648 2.00879 16.6211V4.60742C2.00886 4.16369 2.18536 3.73768 2.49902 3.42383C2.81286 3.10999 3.2388 2.93275 3.68262 2.93262H8.30371ZM3.68262 4.43359C3.63663 4.43373 3.5921 4.45185 3.55957 4.48438C3.52721 4.51693 3.50886 4.56152 3.50879 4.60742V16.6211C3.50895 16.667 3.52711 16.7116 3.55957 16.7441C3.59209 16.7766 3.63668 16.7948 3.68262 16.7949H9.22754C9.95637 16.7949 10.6614 17.0214 11.25 17.4346V7.37988C11.25 6.5986 10.9391 5.84938 10.3867 5.29688C9.83424 4.7444 9.08503 4.43368 8.30371 4.43359H3.68262ZM15.6963 4.43359C14.9149 4.43366 14.1648 4.74438 13.6123 5.29688C13.1292 5.78028 12.8316 6.4147 12.7646 7.08887L12.749 7.37891L12.75 7.37988V17.4346C13.3387 17.0216 14.0438 16.795 14.7725 16.7949H20.3164C20.3623 16.7949 20.4069 16.7764 20.4395 16.7441C20.472 16.7116 20.491 16.6671 20.4912 16.6211V4.60742C20.4911 4.5614 20.472 4.51695 20.4395 4.48438C20.4068 4.45189 20.3625 4.43359 20.3164 4.43359H15.6963Z" fill="black"/>
</svg>
