<svg width="24" height="24" viewBox="0 0 24 24" fill="none" xmlns="http://www.w3.org/2000/svg">
<path fill-rule="evenodd" clip-rule="evenodd" d="M14.6414 2.66625C15.0841 2.67547 15.5211 2.77306 15.9256 2.95336C16.3301 3.13373 16.6951 3.39383 16.9979 3.71703C17.3005 4.04019 17.5357 4.42092 17.6893 4.83617C17.7752 5.06873 17.8328 5.3103 17.865 5.55492C18.2752 5.72199 18.6577 5.95297 18.9969 6.24144C19.4798 6.65227 19.8636 7.16752 20.118 7.74828C20.3723 8.32918 20.4913 8.96135 20.4656 9.59496C20.4478 10.0321 20.3593 10.4621 20.2088 10.8703C20.5366 11.2235 20.8032 11.6313 20.993 12.0774C21.2594 12.7038 21.3684 13.3863 21.3113 14.0647C21.2541 14.7432 21.0316 15.3978 20.6639 15.9709C20.3839 16.4072 20.0257 16.7862 19.6092 17.0901C19.6141 17.4968 19.5609 17.9035 19.448 18.2961C19.2902 18.845 19.0209 19.3561 18.658 19.7971C18.2949 20.2382 17.8442 20.6001 17.3357 20.8606C16.8273 21.121 16.2711 21.2747 15.701 21.3118C15.1309 21.3487 14.5591 21.2689 14.0213 21.0764C13.4835 20.8838 12.9901 20.583 12.573 20.1926C12.3585 19.9917 12.1669 19.7687 11.9998 19.5286C11.8327 19.7687 11.6411 19.9917 11.4266 20.1926C11.0096 20.5828 10.5169 20.8838 9.9793 21.0764C9.4414 21.269 8.86877 21.3487 8.29863 21.3118C7.72861 21.2747 7.17226 21.121 6.66387 20.8606C6.15539 20.6001 5.70569 20.2382 5.34258 19.7971C4.97952 19.356 4.71047 18.8452 4.55254 18.2961C4.43963 17.9035 4.38552 17.4969 4.39043 17.0901C3.97399 16.7862 3.61568 16.4071 3.33574 15.9709C2.96809 15.3979 2.74554 14.7431 2.68828 14.0647C2.63116 13.3863 2.74114 12.7039 3.00762 12.0774C3.19727 11.6317 3.46336 11.2242 3.79082 10.8713C3.64018 10.4629 3.55275 10.0324 3.53496 9.59496C3.5093 8.96135 3.62733 8.32918 3.88164 7.74828C4.13597 7.16757 4.51989 6.65226 5.00273 6.24144C5.34155 5.95327 5.72393 5.72194 6.13359 5.55492C6.16579 5.31029 6.22441 5.06874 6.31035 4.83617C6.46386 4.42102 6.69925 4.04014 7.00176 3.71703C7.30451 3.39387 7.6696 3.13372 8.07402 2.95336C8.47852 2.77302 8.91542 2.67547 9.3582 2.66625C9.80103 2.65705 10.2414 2.73626 10.6531 2.89964C11.0647 3.06301 11.4397 3.30713 11.7557 3.61742C11.8422 3.70238 11.9234 3.79243 11.9998 3.88597C12.0762 3.79245 12.1575 3.70237 12.2439 3.61742C12.5599 3.30715 12.9349 3.06303 13.3465 2.89964C13.7581 2.73631 14.1987 2.65708 14.6414 2.66625ZM9.38945 4.16527C9.14669 4.17033 8.90714 4.22465 8.68535 4.32347C8.46355 4.42239 8.26352 4.56521 8.09746 4.74242C7.93154 4.91958 7.80183 5.12807 7.71758 5.3557C7.63338 5.5835 7.59548 5.82694 7.60625 6.06957V6.0725C7.61831 6.3662 7.70174 6.65273 7.84844 6.90746C8.05512 7.26623 7.93163 7.72499 7.57305 7.93187C7.21416 8.13862 6.75543 8.01532 6.54863 7.65648C6.45365 7.49158 6.37341 7.3194 6.3084 7.14183C6.19137 7.21373 6.07959 7.29457 5.97441 7.38402C5.665 7.64735 5.41869 7.97768 5.25566 8.34984C5.09268 8.72212 5.01665 9.12737 5.03301 9.53343C5.03899 9.68074 5.05683 9.82738 5.08672 9.97093C5.38545 9.92858 5.69319 10.0695 5.84844 10.3489C6.04899 10.7109 5.91835 11.1684 5.55645 11.3694C5.41845 11.446 5.28724 11.5344 5.16484 11.634C5.16087 11.6373 5.15617 11.6397 5.15215 11.6428C4.81881 11.9167 4.55651 12.2672 4.3875 12.6643C4.21665 13.066 4.14679 13.5038 4.1834 13.9387C4.22012 14.3738 4.36267 14.7939 4.59844 15.1614C4.83428 15.5288 5.15672 15.8335 5.53691 16.0481C5.53996 16.0498 5.54269 16.0522 5.5457 16.0539C5.94548 16.2772 6.39628 16.395 6.8543 16.3948C7.26838 16.3947 7.6041 16.7306 7.6043 17.1448C7.60417 17.5585 7.26903 17.8943 6.85527 17.8948C6.55797 17.8949 6.26281 17.8611 5.97441 17.7991C5.98132 17.8263 5.98618 17.854 5.99395 17.8811C6.09521 18.2331 6.26801 18.5612 6.50078 18.844C6.73351 19.1267 7.02161 19.3586 7.34746 19.5256C7.67353 19.6927 8.03069 19.7919 8.39629 19.8157C8.7618 19.8393 9.1286 19.7878 9.47344 19.6643C9.81823 19.5408 10.1348 19.3472 10.4021 19.0969C10.6692 18.8467 10.8823 18.5439 11.0281 18.2082C11.1739 17.8724 11.2494 17.5098 11.2498 17.1438V12.6194C10.7953 13.0339 10.2623 13.3576 9.67656 13.5637C9.28601 13.7011 8.85818 13.4961 8.72051 13.1057C8.58312 12.715 8.78785 12.2861 9.17852 12.1487C9.75841 11.9446 10.2657 11.5731 10.6346 11.0813C10.9992 10.5949 11.2128 10.012 11.2498 9.4055V5.99339C11.2505 5.75054 11.2028 5.50948 11.1092 5.28539C11.0155 5.06136 10.8781 4.85789 10.7049 4.68773C10.5315 4.5175 10.3252 4.3838 10.0994 4.29418C9.87367 4.20462 9.63226 4.16024 9.38945 4.16527ZM14.6102 4.16527C14.3674 4.16027 14.1259 4.20461 13.9002 4.29418C13.6745 4.38375 13.469 4.51764 13.2957 4.68773C13.1224 4.85793 12.9841 5.06129 12.8904 5.28539C12.7968 5.50947 12.7491 5.75055 12.7498 5.99339V9.39574C12.7852 10.0058 12.9993 10.5922 13.366 11.0813C13.735 11.5732 14.242 11.9446 14.8221 12.1487C15.2125 12.2862 15.4173 12.7152 15.2801 13.1057C15.1424 13.496 14.7145 13.7009 14.324 13.5637C13.7378 13.3575 13.2046 13.0333 12.7498 12.6184V17.1438L12.7645 17.4172C12.7927 17.6892 12.8622 17.9564 12.9715 18.2082C13.1174 18.5441 13.3311 18.8466 13.5984 19.0969C13.8658 19.3472 14.1814 19.5408 14.5262 19.6643C14.8709 19.7877 15.2379 19.8393 15.6033 19.8157C15.9689 19.7919 16.3261 19.6927 16.6521 19.5256C16.9781 19.3586 17.267 19.1268 17.4998 18.844C17.7325 18.5612 17.9044 18.233 18.0057 17.8811C18.0134 17.8541 18.0173 17.8262 18.0242 17.7991C17.7364 17.8608 17.442 17.8949 17.1453 17.8948C16.7313 17.8945 16.3954 17.5587 16.3953 17.1448C16.3955 16.7307 16.7313 16.3948 17.1453 16.3948C17.6046 16.395 18.0563 16.2764 18.4568 16.052C18.4591 16.0507 18.4614 16.0493 18.4637 16.0481C18.8439 15.8334 19.1663 15.5288 19.4021 15.1614C19.6379 14.7939 19.7805 14.3737 19.8172 13.9387C19.8538 13.5038 19.783 13.0659 19.6121 12.6643C19.4423 12.2653 19.1782 11.9133 18.8426 11.6389C18.8404 11.6372 18.8379 11.6358 18.8357 11.634C18.7132 11.5342 18.5813 11.4461 18.4432 11.3694C18.0811 11.1684 17.9504 10.711 18.1512 10.3489C18.3062 10.0696 18.6133 9.92903 18.9119 9.97093C18.9418 9.82733 18.9606 9.6808 18.9666 9.53343C18.983 9.12737 18.9069 8.72213 18.7439 8.34984C18.5809 7.97763 18.3347 7.64736 18.0252 7.38402C17.9199 7.29448 17.8073 7.21475 17.6902 7.14281C17.625 7.31983 17.5459 7.49199 17.451 7.65648C17.244 8.01524 16.7853 8.13887 16.4266 7.93187C16.0679 7.72486 15.9453 7.26617 16.1521 6.90746C16.2982 6.6543 16.3804 6.36929 16.3934 6.07738C16.3934 6.07493 16.3933 6.07202 16.3934 6.06957C16.4041 5.82694 16.3662 5.5835 16.282 5.3557C16.1978 5.12823 16.0689 4.91949 15.9031 4.74242C15.7371 4.56526 15.5369 4.42239 15.3152 4.32347C15.0934 4.22456 14.853 4.17033 14.6102 4.16527Z" fill="black"/>
</svg>
