<svg width="24" height="24" viewBox="0 0 24 24" fill="none" xmlns="http://www.w3.org/2000/svg">
<path fill-rule="evenodd" clip-rule="evenodd" d="M15.4033 2.74219C15.8172 2.74239 16.1531 3.07826 16.1533 3.49219V4.44434H17.9561C19.3095 4.44481 20.4071 5.54203 20.4072 6.89551V18.8066C20.4069 20.16 19.3094 21.2573 17.9561 21.2578H6.04492C4.69136 21.2576 3.59312 20.1602 3.59277 18.8066V6.89551C3.59294 5.54184 4.69125 4.44451 6.04492 4.44434H7.84668V3.49219C7.84688 3.07826 8.18276 2.74239 8.59668 2.74219C9.01077 2.74219 9.34648 3.07814 9.34668 3.49219V4.44434H14.6533V3.49219C14.6535 3.07814 14.9892 2.74219 15.4033 2.74219ZM5.09375 11.0488V18.8066C5.09409 19.3317 5.51979 19.7576 6.04492 19.7578H17.9561C18.4809 19.7573 18.9069 19.3315 18.9072 18.8066V11.0488H5.09375ZM6.04492 5.94434C5.51968 5.94451 5.09392 6.37027 5.09375 6.89551V9.54883H18.9072V6.89551C18.9071 6.37045 18.481 5.94481 17.9561 5.94434H16.1533V6.89551C16.1531 7.30944 15.8173 7.64531 15.4033 7.64551C14.9892 7.64551 14.6535 7.30956 14.6533 6.89551V5.94434H9.34668V6.89551C9.3465 7.30956 9.01078 7.64551 8.59668 7.64551C8.18275 7.64531 7.84686 7.30944 7.84668 6.89551V5.94434H6.04492Z" fill="black"/>
</svg>
