<svg width="24" height="24" viewBox="0 0 24 24" fill="none" xmlns="http://www.w3.org/2000/svg">
<path d="M4.9834 4.2334C5.39757 4.2334 5.73333 4.56924 5.7334 4.9834V17.4541C5.73347 17.6685 5.81916 17.8738 5.9707 18.0254C6.1223 18.177 6.32762 18.2626 6.54199 18.2627H19.0127C19.4268 18.2627 19.7626 18.5986 19.7627 19.0127C19.7627 19.4269 19.4269 19.7627 19.0127 19.7627H6.54199C5.92978 19.7626 5.34209 19.5188 4.90918 19.0859C4.47662 18.6531 4.23347 18.0661 4.2334 17.4541V4.9834C4.23346 4.56928 4.56928 4.23346 4.9834 4.2334Z" fill="black"/>
<path d="M8.88086 12.8066C9.29482 12.8068 9.63073 13.1427 9.63086 13.5566V15.8955C9.6307 16.3095 9.29481 16.6453 8.88086 16.6455C8.46674 16.6455 8.13102 16.3096 8.13086 15.8955V13.5566C8.13099 13.1425 8.46673 12.8066 8.88086 12.8066Z" fill="black"/>
<path d="M16.6748 8.91016C17.0889 8.91029 17.4248 9.24602 17.4248 9.66016V15.8955C17.4246 16.3095 17.0888 16.6454 16.6748 16.6455C16.2607 16.6455 15.925 16.3095 15.9248 15.8955V9.66016C15.9248 9.24594 16.2606 8.91016 16.6748 8.91016Z" fill="black"/>
<path d="M12.7773 5.79199C13.1915 5.79199 13.5272 6.12789 13.5273 6.54199V15.8945C13.5273 16.3087 13.1916 16.6445 12.7773 16.6445C12.3632 16.6445 12.0273 16.3087 12.0273 15.8945V6.54199C12.0275 6.12793 12.3633 5.79206 12.7773 5.79199Z" fill="black"/>
</svg>
