<svg width="24" height="24" viewBox="0 0 24 24" fill="none" xmlns="http://www.w3.org/2000/svg">
<path d="M19.4348 12.0006C19.4348 7.89513 16.1063 4.56701 12.0009 4.56673C7.89532 4.56673 4.5671 7.89496 4.5671 12.0006C4.56737 16.1059 7.89549 19.4344 12.0009 19.4344C16.1061 19.4341 19.4345 16.1058 19.4348 12.0006ZM13.8948 9.76424C14.2174 9.4418 14.74 9.44172 15.0626 9.76424C15.3849 10.0868 15.3849 10.6095 15.0626 10.932L11.7589 14.2357C11.4363 14.5582 10.9125 14.5582 10.5899 14.2357L8.93809 12.5838C8.61588 12.2613 8.61582 11.7386 8.93809 11.4161C9.26066 11.0935 9.78451 11.0935 10.1071 11.4161L11.1744 12.4834L13.8948 9.76424ZM21.0866 12.0006C21.0863 17.0181 17.0185 21.0859 12.0009 21.0862C6.98314 21.0862 2.91434 17.0183 2.91406 12.0006C2.91406 6.9826 6.98297 2.9137 12.0009 2.9137C17.0187 2.91397 21.0866 6.98277 21.0866 12.0006Z" fill="black"/>
</svg>
