<svg width="224" height="224" viewBox="0 0 224 224" fill="none" xmlns="http://www.w3.org/2000/svg">
<g opacity="0.6">
<path d="M179.195 22.3994H44.7988C32.428 22.3994 22.3994 32.428 22.3994 44.7988V179.195C22.3994 191.566 32.428 201.595 44.7988 201.595H179.195C191.566 201.595 201.595 191.566 201.595 179.195V44.7988C201.595 32.428 191.566 22.3994 179.195 22.3994Z" stroke="#E9D4FF" stroke-width="1.11997"/>
<path d="M161.276 44.7988H62.7183C52.8216 44.7988 44.7988 52.8217 44.7988 62.7183V161.276C44.7988 171.172 52.8216 179.195 62.7183 179.195H161.276C171.172 179.195 179.195 171.172 179.195 161.276V62.7183C179.195 52.8217 171.172 44.7988 161.276 44.7988Z" stroke="#E9D4FF" stroke-width="1.11997"/>
<path d="M143.356 67.1982H80.6379C73.2153 67.1982 67.1982 73.2154 67.1982 80.6379V143.356C67.1982 150.779 73.2153 156.796 80.6379 156.796H143.356C150.779 156.796 156.796 150.779 156.796 143.356V80.6379C156.796 73.2154 150.779 67.1982 143.356 67.1982Z" stroke="#E9D4FF" stroke-width="1.11997"/>
</g>
</svg>
