<svg width="24" height="24" viewBox="0 0 24 24" fill="none" xmlns="http://www.w3.org/2000/svg">
<path d="M12.8483 4.25203C13.0632 4.21228 13.2846 4.23738 13.484 4.32332L13.568 4.36336L13.6481 4.41121C13.804 4.51246 13.9316 4.65158 14.0192 4.81551L14.0602 4.89949L14.0934 4.98739C14.1617 5.19324 14.1679 5.41558 14.11 5.62606C14.1073 5.63578 14.1043 5.64575 14.1012 5.65535L12.7643 9.84578H17.6081C17.8133 9.8454 18.0157 9.88784 18.2018 9.97078L18.3825 10.0675L18.5475 10.1886C18.7036 10.3205 18.8307 10.4843 18.9196 10.67C19.0381 10.9177 19.0846 11.1942 19.0524 11.4669C19.0202 11.7396 18.9109 11.9978 18.7379 12.211C18.724 12.2282 18.7094 12.245 18.694 12.2608L11.7506 19.4141L11.7497 19.4132C11.5893 19.5844 11.3795 19.7014 11.1481 19.7442C10.9026 19.7896 10.6485 19.7506 10.4284 19.6329C10.2083 19.5152 10.0347 19.326 9.93619 19.0968C9.83769 18.8674 9.82019 18.6109 9.88638 18.3702L9.89517 18.3409L11.2321 14.1505H6.38834V14.1495C6.11447 14.15 5.84591 14.0744 5.61392 13.9288C5.38147 13.7829 5.19537 13.5738 5.07681 13.3263C4.95832 13.0786 4.91185 12.802 4.944 12.5294L4.98306 12.3282C5.03538 12.1305 5.12867 11.9453 5.25845 11.7852L5.3024 11.7354L12.2458 4.58211V4.58309C12.4062 4.41159 12.6167 4.29491 12.8483 4.25203ZM6.50552 12.6505H11.2965C11.4718 12.6502 11.645 12.6821 11.8083 12.7432L11.9684 12.8145L12.1198 12.9044C12.2641 13.0033 12.3894 13.1282 12.4899 13.2725C12.5905 13.417 12.664 13.5783 12.7067 13.7481L12.7389 13.921L12.7506 14.0958C12.7513 14.2586 12.7219 14.4198 12.6686 14.5743L12.6706 14.5753L11.8444 17.1622L17.4909 11.3458H12.6999V11.3448C12.4658 11.3452 12.2347 11.2897 12.027 11.1817C11.819 11.0734 11.6405 10.9161 11.5065 10.7237C11.3724 10.5311 11.2868 10.3082 11.2575 10.0753C11.2297 9.8545 11.2543 9.631 11.3268 9.42098H11.3258L12.151 6.83309L6.50552 12.6505Z" fill="black"/>
</svg>
