<svg width="24" height="24" viewBox="0 0 24 24" fill="none" xmlns="http://www.w3.org/2000/svg">
<path d="M14.832 14.082C16.0327 14.0822 17.1841 14.5592 18.0332 15.4082C18.8824 16.2574 19.3604 17.4094 19.3604 18.6104V20.5C19.36 20.9137 19.0241 21.2497 18.6104 21.25C18.1965 21.2499 17.8607 20.9138 17.8604 20.5V18.6104C17.8604 17.8072 17.5406 17.0367 16.9727 16.4688C16.4049 15.9011 15.6349 15.5822 14.832 15.582H9.16406C8.36099 15.5821 7.59032 15.9009 7.02246 16.4688C6.45469 17.0366 6.13574 17.8073 6.13574 18.6104V20.5C6.13535 20.9139 5.79971 21.25 5.38574 21.25C4.97188 21.2499 4.63613 20.9138 4.63574 20.5V18.6104C4.63574 17.4095 5.11284 16.2574 5.96191 15.4082C6.81108 14.559 7.96317 14.0821 9.16406 14.082H14.832Z" fill="black"/>
<path fill-rule="evenodd" clip-rule="evenodd" d="M11.998 2.74707C14.499 2.74707 16.5264 4.77447 16.5264 7.27539C16.5262 9.7762 14.4989 11.8037 11.998 11.8037C9.49726 11.8036 7.46986 9.77616 7.46973 7.27539C7.46973 4.77451 9.49718 2.74714 11.998 2.74707ZM11.998 4.24707C10.3256 4.24714 8.96973 5.60294 8.96973 7.27539C8.96986 8.94773 10.3257 10.3036 11.998 10.3037C13.6705 10.3037 15.0262 8.94778 15.0264 7.27539C15.0264 5.6029 13.6705 4.24707 11.998 4.24707Z" fill="black"/>
</svg>
