<svg width="24" height="24" viewBox="0 0 24 24" fill="none" xmlns="http://www.w3.org/2000/svg">
<path fill-rule="evenodd" clip-rule="evenodd" d="M7.66823 14.1092C8.17444 14.1249 8.65995 14.3039 9.05397 14.616L9.21706 14.7576L9.22682 14.7664C10.1047 15.6334 10.0924 17.0237 9.33913 17.9168C9.0123 18.3059 8.56339 18.5919 8.1321 18.8026C7.69215 19.0175 7.21716 19.1807 6.79128 19.3026C6.36312 19.425 5.96813 19.5097 5.68092 19.5643C5.53696 19.5916 5.41863 19.6116 5.33522 19.6248C5.29353 19.6314 5.2599 19.6371 5.23659 19.6405C5.22513 19.6421 5.21582 19.6434 5.20925 19.6444C5.20607 19.6448 5.2034 19.6451 5.20143 19.6453H5.19753C4.96595 19.6763 4.73288 19.5976 4.56764 19.4324C4.40249 19.2672 4.32384 19.0341 4.35475 18.8026V18.7987C4.35502 18.7967 4.35529 18.794 4.35573 18.7908C4.35665 18.7843 4.35796 18.775 4.35964 18.7635C4.36302 18.7402 4.36865 18.7066 4.37526 18.6649C4.38848 18.5815 4.40849 18.463 4.43581 18.3192C4.49035 18.032 4.57507 17.6369 4.69753 17.2088C4.81935 16.7829 4.98264 16.3079 5.19753 15.868C5.40821 15.4367 5.69326 14.9868 6.08229 14.66C6.52492 14.2873 7.08986 14.0913 7.66823 14.1092ZM7.62135 15.6082C7.41232 15.6019 7.20804 15.6736 7.04811 15.8084C6.8871 15.9437 6.71272 16.1842 6.54518 16.5272C6.38201 16.8613 6.24725 17.2457 6.13991 17.6209C6.10854 17.7306 6.08297 17.8395 6.0569 17.9432C6.16068 17.9171 6.26942 17.8916 6.37917 17.8602C6.75459 17.7528 7.13958 17.6182 7.47389 17.4549C7.81672 17.2874 8.05644 17.1139 8.19167 16.953L8.19264 16.951C8.47625 16.6155 8.45355 16.1222 8.1819 15.8436L8.05983 15.7469C7.93005 15.6621 7.77828 15.6131 7.62135 15.6082Z" fill="black"/>
<path fill-rule="evenodd" clip-rule="evenodd" d="M19.4075 3.84749C19.8196 3.85031 20.1525 4.18535 20.1526 4.59749C20.1526 6.66083 19.5727 10.2551 15.8587 12.9793C15.9208 13.2406 15.9936 13.5817 16.0423 13.9588C16.096 14.3757 16.1262 14.8569 16.0823 15.3299C16.0389 15.7964 15.9182 16.3113 15.6253 16.7508L15.6243 16.7518C15.1231 17.5009 14.1791 17.9336 13.5227 18.1717C13.1695 18.2998 12.8432 18.3911 12.6057 18.45C12.4866 18.4796 12.3884 18.5017 12.3186 18.5164C12.2837 18.5238 12.2555 18.5291 12.2356 18.533C12.2258 18.5349 12.218 18.5368 12.2122 18.5379C12.2093 18.5385 12.2062 18.5386 12.2044 18.5389L12.2024 18.5399H12.2005C11.9818 18.5795 11.7568 18.5201 11.5862 18.3778C11.4155 18.2353 11.3167 18.0239 11.3167 17.8016V14.4442L9.55592 12.6834H6.1985C5.97629 12.6834 5.76483 12.5844 5.62233 12.4139C5.48016 12.2433 5.42063 12.0181 5.46022 11.7996L5.4612 11.7977V11.7957C5.46152 11.794 5.4617 11.7915 5.46217 11.7889C5.46327 11.7831 5.46513 11.7743 5.46706 11.7645C5.47092 11.7447 5.4764 11.7169 5.48366 11.6824C5.49836 11.6127 5.52051 11.5135 5.55007 11.3944C5.60895 11.157 5.70032 10.8305 5.82839 10.4774C6.0665 9.82099 6.49922 8.87698 7.24831 8.37581C7.68772 8.08289 8.20375 7.96218 8.67018 7.91878C9.14315 7.87485 9.62444 7.90509 10.0413 7.95881C10.4216 8.00786 10.7655 8.08003 11.0276 8.14241C11.9165 6.8902 13.079 5.85277 14.429 5.11018C15.9534 4.27184 17.6678 3.8367 19.4075 3.84749ZM14.5042 13.828C13.9567 14.1292 13.3939 14.4016 12.8167 14.6414V16.825C12.8798 16.8042 12.9455 16.7853 13.011 16.7615C13.5646 16.5607 14.0347 16.3062 14.2844 16.035L14.3772 15.9178C14.48 15.7632 14.5573 15.523 14.5882 15.1912C14.6184 14.8653 14.5992 14.5026 14.554 14.1512C14.5396 14.0397 14.5221 13.9314 14.5042 13.828ZM18.6204 5.37776C17.4068 5.4791 16.2248 5.83501 15.1526 6.42463C13.8524 7.13974 12.7559 8.17537 11.969 9.43342L11.9651 9.44026C11.4942 10.1757 11.0867 10.9497 10.7473 11.7537L12.2473 13.2528C13.0577 12.9156 13.8394 12.5121 14.5823 12.0438C17.6721 9.97191 18.4668 7.26336 18.6204 5.37776ZM8.80983 9.41194C8.47735 9.44284 8.23592 9.52081 8.08132 9.62385C7.76745 9.83478 7.46773 10.3573 7.23854 10.9891C7.21479 11.0546 7.19492 11.1203 7.17409 11.1834H9.36061C9.60369 10.6064 9.87834 10.0432 10.1839 9.4969C10.0769 9.47818 9.96449 9.46102 9.84889 9.44612C9.49776 9.40089 9.13561 9.38173 8.80983 9.41194Z" fill="black"/>
</svg>
