<svg width="24" height="24" viewBox="0 0 24 24" fill="none" xmlns="http://www.w3.org/2000/svg">
<g opacity="0.980893">
<path fill-rule="evenodd" clip-rule="evenodd" d="M12.0967 2.61523C12.2885 2.63088 12.4735 2.69345 12.6357 2.79688L12.7148 2.85156L12.7891 2.91309C12.9562 3.06276 13.0778 3.25732 13.1387 3.47461C13.14 3.4794 13.1413 3.48444 13.1426 3.48926L14.5088 8.78906C14.5524 8.9582 14.6402 9.1128 14.7637 9.23633C14.8872 9.35983 15.0418 9.44756 15.2109 9.49121L20.5107 10.8574L20.5225 10.8604C20.7405 10.9205 20.9365 11.0419 21.0869 11.209L21.1484 11.2842L21.2041 11.3633C21.3253 11.5528 21.3906 11.7737 21.3906 12C21.3906 12.2586 21.3051 12.5101 21.1484 12.7158C20.9917 12.9215 20.7717 13.0709 20.5225 13.1396L20.5107 13.1426L15.2109 14.5078C15.0418 14.5514 14.8872 14.6402 14.7637 14.7637C14.6403 14.8871 14.5524 15.0419 14.5088 15.2109L13.1416 20.5098C13.1403 20.5147 13.1391 20.5205 13.1377 20.5254C13.0681 20.7735 12.9192 20.9927 12.7139 21.1484C12.5085 21.3041 12.2577 21.3886 12 21.3887C11.7421 21.3887 11.4907 21.3043 11.2852 21.1484C11.0798 20.9926 10.9309 20.7736 10.8613 20.5254C10.8599 20.5204 10.8587 20.5147 10.8574 20.5098L9.49219 15.2109L9.45117 15.0869C9.40217 14.9663 9.32902 14.8564 9.23633 14.7637C9.11282 14.6402 8.95817 14.5515 8.78906 14.5078L3.49023 13.1416C3.48445 13.1401 3.47841 13.1384 3.47266 13.1367C3.22542 13.0665 3.00758 12.9179 2.85254 12.7129C2.71683 12.5333 2.63533 12.3188 2.61719 12.0957L2.61328 12L2.61719 11.9033C2.63546 11.6806 2.71699 11.4665 2.85254 11.2871C3.00758 11.0821 3.2254 10.9335 3.47266 10.8633L3.49023 10.8584L8.78906 9.49023C8.95789 9.44658 9.11296 9.35861 9.23633 9.23535C9.35972 9.112 9.44846 8.95796 9.49219 8.78906L10.8584 3.48926C10.8596 3.48443 10.861 3.47941 10.8623 3.47461C10.9318 3.22635 11.0808 3.0074 11.2861 2.85156L11.3652 2.79688C11.5545 2.6762 11.7752 2.61133 12.001 2.61133L12.0967 2.61523ZM10.9443 9.16406C10.8336 9.5925 10.6099 9.98405 10.2969 10.2969C9.98387 10.6096 9.59249 10.8329 9.16406 10.9434L5.06836 11.999L9.16406 13.0557C9.59273 13.1663 9.98383 13.3901 10.2969 13.7031C10.5707 13.977 10.7763 14.3105 10.8975 14.6768L10.9443 14.8359L12 18.9307L13.0557 14.8359L13.1025 14.6768C13.2237 14.3106 13.4293 13.977 13.7031 13.7031C14.0161 13.3902 14.4074 13.1663 14.8359 13.0557L18.9336 12L14.8369 10.9443C14.4083 10.8337 14.0161 10.6099 13.7031 10.2969C13.3901 9.98384 13.1663 9.5927 13.0557 9.16406L12 5.06738L10.9443 9.16406Z" fill="black"/>
<path d="M5.08984 15.5693C5.50395 15.5695 5.83984 15.9052 5.83984 16.3193V16.4326H5.95312C6.36722 16.4326 6.70293 16.7686 6.70312 17.1826C6.70312 17.5968 6.36734 17.9326 5.95312 17.9326H5.83984V18.0469C5.83971 18.4609 5.50386 18.7967 5.08984 18.7969C4.67571 18.7969 4.33998 18.461 4.33984 18.0469V17.9326H4.22559C3.81143 17.9326 3.47559 17.5968 3.47559 17.1826C3.47578 16.7686 3.81155 16.4327 4.22559 16.4326H4.33984V16.3193C4.33984 15.9051 4.67563 15.5693 5.08984 15.5693Z" fill="black"/>
<path d="M18.9111 3.47559C19.3252 3.47572 19.6611 3.81145 19.6611 4.22559V5.20312H20.6387C21.0527 5.20332 21.3886 5.53909 21.3887 5.95312C21.3887 6.36722 21.0527 6.70293 20.6387 6.70312H19.6611V7.68066C19.6611 8.0948 19.3252 8.43053 18.9111 8.43066C18.4969 8.43066 18.1611 8.09488 18.1611 7.68066V6.70312H17.1836C16.7694 6.70312 16.4336 6.36734 16.4336 5.95312C16.4337 5.53897 16.7694 5.20312 17.1836 5.20312H18.1611V4.22559C18.1611 3.81137 18.4969 3.47559 18.9111 3.47559Z" fill="black"/>
</g>
</svg>
