<svg width="24" height="24" viewBox="0 0 24 24" fill="none" xmlns="http://www.w3.org/2000/svg">
<path fill-rule="evenodd" clip-rule="evenodd" d="M11.999 9.72656C13.2535 9.72696 14.2705 10.7444 14.2705 11.999C14.2701 13.2533 13.2533 14.2701 11.999 14.2705C10.7444 14.2705 9.72696 13.2535 9.72656 11.999C9.72656 10.7442 10.7442 9.72656 11.999 9.72656ZM11.999 11.2266C11.5726 11.2266 11.2266 11.5726 11.2266 11.999C11.227 12.4251 11.5729 12.7705 11.999 12.7705C12.4249 12.7701 12.7701 12.4249 12.7705 11.999C12.7705 11.5729 12.4251 11.227 11.999 11.2266Z" fill="black"/>
<path fill-rule="evenodd" clip-rule="evenodd" d="M11.998 6.68262C14.9336 6.68268 17.3134 9.06245 17.3135 11.998C17.3134 14.9336 14.9336 17.3134 11.998 17.3135C9.06245 17.3134 6.68268 14.9336 6.68262 11.998C6.68268 9.06245 9.06245 6.68268 11.998 6.68262ZM11.998 8.18262C9.89087 8.18268 8.18268 9.89087 8.18262 11.998C8.18268 14.1052 9.89087 15.8134 11.998 15.8135C14.1052 15.8134 15.8134 14.1052 15.8135 11.998C15.8134 9.89087 14.1052 8.18268 11.998 8.18262Z" fill="black"/>
<path fill-rule="evenodd" clip-rule="evenodd" d="M11.998 3.63867C16.6146 3.63874 20.3574 7.38145 20.3574 11.998C20.3574 16.6146 16.6146 20.3574 11.998 20.3574C7.38145 20.3574 3.63874 16.6146 3.63867 11.998C3.63874 7.38145 7.38145 3.63874 11.998 3.63867ZM11.998 5.13867C8.20988 5.13874 5.13874 8.20988 5.13867 11.998C5.13874 15.7862 8.20988 18.8574 11.998 18.8574C15.7862 18.8574 18.8574 15.7862 18.8574 11.998C18.8574 8.20988 15.7862 5.13874 11.998 5.13867Z" fill="black"/>
</svg>
