<svg width="1024" height="900" viewBox="0 0 1024 900" fill="none" xmlns="http://www.w3.org/2000/svg">
<g clip-path="url(#clip0_2028_6108)">
<g clip-path="url(#clip1_2028_6108)">
<g opacity="0.3" filter="url(#filter0_f_2028_6108)">
<path d="M677.006 223.994C677.006 144.467 741.476 79.9971 821.003 79.9971C900.53 79.9971 965 144.467 965 223.994C965 303.521 900.53 367.991 821.003 367.991C741.476 367.991 677.006 303.521 677.006 223.994Z" fill="#BEDBFF"/>
</g>
<g opacity="0.3" filter="url(#filter1_f_2028_6108)">
<path d="M81 577.999C81 471.961 166.961 386 272.999 386C379.037 386 464.998 471.961 464.998 577.999C464.998 684.037 379.037 769.998 272.999 769.998C166.961 769.998 81 684.037 81 577.999Z" fill="#E9D4FF"/>
</g>
<g opacity="0.3" filter="url(#filter2_f_2028_6108)">
<rect x="565.005" y="424" width="255.999" height="255.999" rx="100" fill="url(#paint0_linear_2028_6108)"/>
</g>
</g>
<g opacity="0.4">
<path d="M879.997 155.193C908.273 155.193 931.196 132.27 931.196 103.993C931.196 75.7163 908.273 52.7935 879.997 52.7935C851.72 52.7935 828.797 75.7163 828.797 103.993C828.797 132.27 851.72 155.193 879.997 155.193Z" stroke="#BEDBFF" stroke-width="1.2"/>
<path d="M879.997 135.993C897.67 135.993 911.996 121.666 911.996 103.993C911.996 86.3202 897.67 71.9934 879.997 71.9934C862.324 71.9934 847.997 86.3202 847.997 103.993C847.997 121.666 862.324 135.993 879.997 135.993Z" stroke="#BEDBFF" stroke-width="1.2"/>
</g>
<g opacity="0.4" clip-path="url(#clip2_2028_6108)">
<path d="M39.9936 219.255H116.789" stroke="#E9D4FF" stroke-width="2" stroke-linecap="round"/>
<path d="M39.9936 248.054H97.5903" stroke="#E9D4FF" stroke-width="2" stroke-linecap="round"/>
<path d="M39.9936 276.852H78.3914" stroke="#E9D4FF" stroke-width="2" stroke-linecap="round"/>
</g>
<g opacity="0.4">
<path d="M144.099 710.829C145.479 710.829 146.599 709.71 146.599 708.329C146.599 706.949 145.479 705.829 144.099 705.829C142.718 705.829 141.599 706.949 141.599 708.329C141.599 709.71 142.718 710.829 144.099 710.829Z" fill="#FCCEE8"/>
<path d="M168.098 710.829C169.479 710.829 170.598 709.71 170.598 708.329C170.598 706.949 169.479 705.829 168.098 705.829C166.717 705.829 165.598 706.949 165.598 708.329C165.598 709.71 166.717 710.829 168.098 710.829Z" fill="#FCCEE8"/>
<path d="M192.097 710.829C193.478 710.829 194.597 709.71 194.597 708.329C194.597 706.949 193.478 705.829 192.097 705.829C190.716 705.829 189.597 706.949 189.597 708.329C189.597 709.71 190.716 710.829 192.097 710.829Z" fill="#FCCEE8"/>
<path d="M144.099 734.828C145.479 734.828 146.599 733.709 146.599 732.328C146.599 730.948 145.479 729.828 144.099 729.828C142.718 729.828 141.599 730.948 141.599 732.328C141.599 733.709 142.718 734.828 144.099 734.828Z" fill="#FCCEE8"/>
<path d="M168.098 734.828C169.479 734.828 170.598 733.709 170.598 732.328C170.598 730.948 169.479 729.828 168.098 729.828C166.717 729.828 165.598 730.948 165.598 732.328C165.598 733.709 166.717 734.828 168.098 734.828Z" fill="#FCCEE8"/>
<path d="M192.097 734.828C193.478 734.828 194.597 733.709 194.597 732.328C194.597 730.948 193.478 729.828 192.097 729.828C190.716 729.828 189.597 730.948 189.597 732.328C189.597 733.709 190.716 734.828 192.097 734.828Z" fill="#FCCEE8"/>
<path d="M144.099 758.827C145.479 758.827 146.599 757.708 146.599 756.327C146.599 754.947 145.479 753.827 144.099 753.827C142.718 753.827 141.599 754.947 141.599 756.327C141.599 757.708 142.718 758.827 144.099 758.827Z" fill="#FCCEE8"/>
<path d="M168.098 758.827C169.479 758.827 170.598 757.708 170.598 756.327C170.598 754.947 169.479 753.827 168.098 753.827C166.717 753.827 165.598 754.947 165.598 756.327C165.598 757.708 166.717 758.827 168.098 758.827Z" fill="#FCCEE8"/>
<path d="M192.097 758.827C193.478 758.827 194.597 757.708 194.597 756.327C194.597 754.947 193.478 753.827 192.097 753.827C190.716 753.827 189.597 754.947 189.597 756.327C189.597 757.708 190.716 758.827 192.097 758.827Z" fill="#FCCEE8"/>
</g>
<g opacity="0.4">
<path d="M859 580.11C885.666 558.777 912.331 558.777 938.997 580.11C965.663 601.443 992.328 601.443 1018.99 580.11" stroke="#C6D2FF" stroke-width="3" stroke-linecap="round"/>
<path d="M859 596.11C885.666 574.777 912.331 574.777 938.997 596.11C965.663 617.442 992.328 617.442 1018.99 596.11" stroke="#C6D2FF" stroke-width="3" stroke-linecap="round"/>
</g>
</g>
<defs>
<filter id="filter0_f_2028_6108" x="577.006" y="-20.0029" width="487.993" height="487.994" filterUnits="userSpaceOnUse" color-interpolation-filters="sRGB">
<feFlood flood-opacity="0" result="BackgroundImageFix"/>
<feBlend mode="normal" in="SourceGraphic" in2="BackgroundImageFix" result="shape"/>
<feGaussianBlur stdDeviation="50" result="effect1_foregroundBlur_2028_6108"/>
</filter>
<filter id="filter1_f_2028_6108" x="-19" y="286" width="583.998" height="583.998" filterUnits="userSpaceOnUse" color-interpolation-filters="sRGB">
<feFlood flood-opacity="0" result="BackgroundImageFix"/>
<feBlend mode="normal" in="SourceGraphic" in2="BackgroundImageFix" result="shape"/>
<feGaussianBlur stdDeviation="50" result="effect1_foregroundBlur_2028_6108"/>
</filter>
<filter id="filter2_f_2028_6108" x="465.005" y="324" width="455.999" height="455.999" filterUnits="userSpaceOnUse" color-interpolation-filters="sRGB">
<feFlood flood-opacity="0" result="BackgroundImageFix"/>
<feBlend mode="normal" in="SourceGraphic" in2="BackgroundImageFix" result="shape"/>
<feGaussianBlur stdDeviation="50" result="effect1_foregroundBlur_2028_6108"/>
</filter>
<linearGradient id="paint0_linear_2028_6108" x1="565.005" y1="424" x2="853.139" y2="636.404" gradientUnits="userSpaceOnUse">
<stop stop-color="#FEECF6"/>
<stop offset="1" stop-color="#FCCEE8"/>
</linearGradient>
<clipPath id="clip0_2028_6108">
<rect width="1024" height="900" fill="white"/>
</clipPath>
<clipPath id="clip1_2028_6108">
<rect width="1024" height="900" fill="white"/>
</clipPath>
<clipPath id="clip2_2028_6108">
<rect width="95.9945" height="95.9945" fill="white" transform="translate(39.9936 200.056)"/>
</clipPath>
</defs>
</svg>
