<svg width="402" height="874" viewBox="0 0 402 874" fill="none" xmlns="http://www.w3.org/2000/svg">
<g clip-path="url(#clip0_2028_6106)">
<g clip-path="url(#clip1_2028_6106)">
<g opacity="0.3" filter="url(#filter0_f_2028_6106)">
<path d="M155 216.997C155 137.47 219.47 73 298.997 73C378.524 73 442.993 137.47 442.993 216.997C442.993 296.524 378.524 360.993 298.997 360.993C219.47 360.993 155 296.524 155 216.997Z" fill="#BEDBFF"/>
</g>
<g opacity="0.3" filter="url(#filter1_f_2028_6106)">
<path d="M-104 656.111C-104 550.073 -18.0392 464.113 87.9989 464.113C194.037 464.113 279.998 550.073 279.998 656.111C279.998 762.149 194.037 848.11 87.9989 848.11C-18.0392 848.11 -104 762.149 -104 656.111Z" fill="#E9D4FF"/>
</g>
<g opacity="0.3" filter="url(#filter2_f_2028_6106)">
<rect x="205" y="384" width="255.999" height="255.999" rx="100" fill="url(#paint0_linear_2028_6106)"/>
</g>
</g>
<g opacity="0.4">
<path d="M257.996 155.193C286.273 155.193 309.196 132.27 309.196 103.993C309.196 75.7163 286.273 52.7935 257.996 52.7935C229.72 52.7935 206.797 75.7163 206.797 103.993C206.797 132.27 229.72 155.193 257.996 155.193Z" stroke="#BEDBFF" stroke-width="1.2"/>
<path d="M257.997 135.993C275.67 135.993 289.996 121.666 289.996 103.993C289.996 86.3202 275.67 71.9934 257.997 71.9934C240.324 71.9934 225.997 86.3202 225.997 103.993C225.997 121.666 240.324 135.993 257.997 135.993Z" stroke="#BEDBFF" stroke-width="1.2"/>
</g>
<g opacity="0.4" clip-path="url(#clip2_2028_6106)">
<path d="M39.9937 219.255H116.789" stroke="#E9D4FF" stroke-width="2" stroke-linecap="round"/>
<path d="M39.9937 248.054H97.5904" stroke="#E9D4FF" stroke-width="2" stroke-linecap="round"/>
<path d="M39.9937 276.852H78.3915" stroke="#E9D4FF" stroke-width="2" stroke-linecap="round"/>
</g>
<g opacity="0.4">
<path d="M144.099 684.829C145.479 684.829 146.599 683.71 146.599 682.329C146.599 680.949 145.479 679.829 144.099 679.829C142.718 679.829 141.599 680.949 141.599 682.329C141.599 683.71 142.718 684.829 144.099 684.829Z" fill="#FCCEE8"/>
<path d="M168.098 684.829C169.479 684.829 170.598 683.71 170.598 682.329C170.598 680.949 169.479 679.829 168.098 679.829C166.717 679.829 165.598 680.949 165.598 682.329C165.598 683.71 166.717 684.829 168.098 684.829Z" fill="#FCCEE8"/>
<path d="M192.097 684.829C193.478 684.829 194.597 683.71 194.597 682.329C194.597 680.949 193.478 679.829 192.097 679.829C190.716 679.829 189.597 680.949 189.597 682.329C189.597 683.71 190.716 684.829 192.097 684.829Z" fill="#FCCEE8"/>
<path d="M144.099 708.828C145.479 708.828 146.599 707.709 146.599 706.328C146.599 704.948 145.479 703.828 144.099 703.828C142.718 703.828 141.599 704.948 141.599 706.328C141.599 707.709 142.718 708.828 144.099 708.828Z" fill="#FCCEE8"/>
<path d="M168.098 708.828C169.479 708.828 170.598 707.709 170.598 706.328C170.598 704.948 169.479 703.828 168.098 703.828C166.717 703.828 165.598 704.948 165.598 706.328C165.598 707.709 166.717 708.828 168.098 708.828Z" fill="#FCCEE8"/>
<path d="M192.097 708.828C193.478 708.828 194.597 707.709 194.597 706.328C194.597 704.948 193.478 703.828 192.097 703.828C190.716 703.828 189.597 704.948 189.597 706.328C189.597 707.709 190.716 708.828 192.097 708.828Z" fill="#FCCEE8"/>
<path d="M144.099 732.827C145.479 732.827 146.599 731.708 146.599 730.327C146.599 728.947 145.479 727.827 144.099 727.827C142.718 727.827 141.599 728.947 141.599 730.327C141.599 731.708 142.718 732.827 144.099 732.827Z" fill="#FCCEE8"/>
<path d="M168.098 732.827C169.479 732.827 170.598 731.708 170.598 730.327C170.598 728.947 169.479 727.827 168.098 727.827C166.717 727.827 165.598 728.947 165.598 730.327C165.598 731.708 166.717 732.827 168.098 732.827Z" fill="#FCCEE8"/>
<path d="M192.097 732.827C193.478 732.827 194.597 731.708 194.597 730.327C194.597 728.947 193.478 727.827 192.097 727.827C190.716 727.827 189.597 728.947 189.597 730.327C189.597 731.708 190.716 732.827 192.097 732.827Z" fill="#FCCEE8"/>
</g>
<g opacity="0.4">
<path d="M237 554.11C263.666 532.777 290.331 532.777 316.997 554.11C343.663 575.443 370.328 575.443 396.994 554.11" stroke="#C6D2FF" stroke-width="3" stroke-linecap="round"/>
<path d="M237 570.11C263.666 548.777 290.331 548.777 316.997 570.11C343.663 591.442 370.328 591.442 396.994 570.11" stroke="#C6D2FF" stroke-width="3" stroke-linecap="round"/>
</g>
</g>
<defs>
<filter id="filter0_f_2028_6106" x="55" y="-27" width="487.993" height="487.994" filterUnits="userSpaceOnUse" color-interpolation-filters="sRGB">
<feFlood flood-opacity="0" result="BackgroundImageFix"/>
<feBlend mode="normal" in="SourceGraphic" in2="BackgroundImageFix" result="shape"/>
<feGaussianBlur stdDeviation="50" result="effect1_foregroundBlur_2028_6106"/>
</filter>
<filter id="filter1_f_2028_6106" x="-204" y="364.113" width="583.998" height="583.998" filterUnits="userSpaceOnUse" color-interpolation-filters="sRGB">
<feFlood flood-opacity="0" result="BackgroundImageFix"/>
<feBlend mode="normal" in="SourceGraphic" in2="BackgroundImageFix" result="shape"/>
<feGaussianBlur stdDeviation="50" result="effect1_foregroundBlur_2028_6106"/>
</filter>
<filter id="filter2_f_2028_6106" x="105" y="284" width="455.999" height="455.999" filterUnits="userSpaceOnUse" color-interpolation-filters="sRGB">
<feFlood flood-opacity="0" result="BackgroundImageFix"/>
<feBlend mode="normal" in="SourceGraphic" in2="BackgroundImageFix" result="shape"/>
<feGaussianBlur stdDeviation="50" result="effect1_foregroundBlur_2028_6106"/>
</filter>
<linearGradient id="paint0_linear_2028_6106" x1="205" y1="384" x2="493.135" y2="596.404" gradientUnits="userSpaceOnUse">
<stop stop-color="#FEECF6"/>
<stop offset="1" stop-color="#FCCEE8"/>
</linearGradient>
<clipPath id="clip0_2028_6106">
<rect width="402" height="874" fill="white"/>
</clipPath>
<clipPath id="clip1_2028_6106">
<rect width="402" height="874" fill="white"/>
</clipPath>
<clipPath id="clip2_2028_6106">
<rect width="95.9945" height="95.9945" fill="white" transform="translate(39.9937 200.056)"/>
</clipPath>
</defs>
</svg>
